HIERARCHY
ROOT Hips
{
 OFFSET 0.000000 0.000000 0.000000
 CHANNELS 6 Xposition Yposition Zposition Yrotation Xrotation Zrotation
 JOINT Chest
 {
  OFFSET 0.000000 9.585900 0.002600
  CHANNELS 3 Yrotation Xrotation Zrotation
  JOINT Chest2
  {
   OFFSET 0.000000 9.601200 -0.005300
   CHANNELS 3 Yrotation Xrotation Zrotation
   JOINT Chest3
   {
    OFFSET 0.000000 9.561800 0.000000
    CHANNELS 3 Yrotation Xrotation Zrotation
    JOINT Chest4
    {
     OFFSET 0.000000 9.552100 0.000000
     CHANNELS 3 Yrotation Xrotation Zrotation
     JOINT Neck
     {
      OFFSET 0.000000 14.453000 0.000000
      CHANNELS 3 Yrotation Xrotation Zrotation
      JOINT Head
      {
       OFFSET 0.000000 8.936500 -0.011300
       CHANNELS 3 Yrotation Xrotation Zrotation
       End Site
       {
        OFFSET 0.000000 17.073600 -0.006000
       }
      }
     }
     JOINT RightCollar
     {
      OFFSET -2.921100 9.558500 0.000000
      CHANNELS 3 Yrotation Xrotation Zrotation
      JOINT RightShoulder
      {
       OFFSET -13.519700 0.000000 0.000000
       CHANNELS 3 Yrotation Xrotation Zrotation
       JOINT RightElbow
       {
        OFFSET 0.000000 -29.696600 0.000000
        CHANNELS 3 Yrotation Xrotation Zrotation
        JOINT RightWrist
        {
         OFFSET 0.000000 -24.004700 0.000000
         CHANNELS 3 Yrotation Xrotation Zrotation
         End Site
         {
          OFFSET 0.000000 -17.728500 0.000000
         }
        }
       }
      }
     }
     JOINT LeftCollar
     {
      OFFSET 2.921100 9.558500 0.000000
      CHANNELS 3 Yrotation Xrotation Zrotation
      JOINT LeftShoulder
      {
       OFFSET 13.519700 0.000000 0.000000
       CHANNELS 3 Yrotation Xrotation Zrotation
       JOINT LeftElbow
       {
        OFFSET 0.000000 -29.696600 0.000000
        CHANNELS 3 Yrotation Xrotation Zrotation
        JOINT LeftWrist
        {
         OFFSET 0.000000 -24.004700 0.000000
         CHANNELS 3 Yrotation Xrotation Zrotation
         End Site
         {
          OFFSET 0.000000 -17.728500 0.000000
         }
        }
       }
      }
     }
    }
   }
  }
 }
 JOINT RightHip
 {
  OFFSET -7.771700 -0.012900 -0.001300
  CHANNELS 3 Yrotation Xrotation Zrotation
  JOINT RightKnee
  {
   OFFSET 0.000000 -40.869800 0.001200
   CHANNELS 3 Yrotation Xrotation Zrotation
   JOINT RightAnkle
   {
    OFFSET 0.000000 -39.717900 0.002100
    CHANNELS 3 Yrotation Xrotation Zrotation
    JOINT RightToe
    {
     OFFSET 0.000000 -4.965400 11.033500
     CHANNELS 3 Yrotation Xrotation Zrotation
     End Site
     {
      OFFSET 0.000000 -1.423100 5.872300
     }
    }
   }
  }
 }
 JOINT LeftHip
 {
  OFFSET 7.771700 -0.012900 -0.001300
  CHANNELS 3 Yrotation Xrotation Zrotation
  JOINT LeftKnee
  {
   OFFSET 0.000000 -40.869800 0.001200
   CHANNELS 3 Yrotation Xrotation Zrotation
   JOINT LeftAnkle
   {
    OFFSET 0.000000 -39.717900 0.002100
    CHANNELS 3 Yrotation Xrotation Zrotation
    JOINT LeftToe
    {
     OFFSET 0.000000 -4.965400 11.033500
     CHANNELS 3 Yrotation Xrotation Zrotation
     End Site
     {
      OFFSET 0.000000 -1.423100 5.872300
     }
    }
   }
  }
 }
}
MOTION
Frames: 8
Frame Time: 0.008333
-20.250208 52.130946 30.817527 179.878636 -40.317364 -0.784729 1.703069 14.721201 -0.657740 0.163293 1.326709 -0.017046 0.229431 2.233178 -0.059533 1.470088 13.159415 -0.127884 -2.235417 20.034693 -0.920199 -2.169052 -4.481714 -0.469472 12.508046 9.549047 12.671979 70.360862 -7.211600 -60.376249 125.795300 -26.932269 -162.225012 5.396793 -7.708834 -10.352839 -13.391904 8.240175 -15.312844 -74.223123 -7.175798 56.123202 -111.686149 -36.109792 165.147668 4.608637 -7.107670 -2.387543 -7.831107 -41.928391 0.134601 -45.862874 81.205811 -54.371620 -4.747831 -4.270468 7.495559 0.563404 -0.023877 0.177462 4.721468 -40.320882 -3.609686 24.550994 83.264321 30.194738 -2.004601 -9.961893 -0.030647 -0.019963 0.344265 -0.098977
-20.240809 52.113475 30.794566 179.846217 -40.225570 -0.776763 1.715285 14.631977 -0.660772 0.148899 1.322613 -0.027611 0.250802 2.230599 -0.044779 1.445466 13.125755 -0.148703 -2.263955 19.996407 -0.936694 -2.195425 -4.524452 -0.480333 12.513333 9.551346 12.679768 70.301796 -7.239814 -60.371770 125.711138 -26.879750 -162.175650 5.312803 -7.724798 -10.386020 -13.343904 8.182154 -15.319052 -74.221768 -7.137193 56.091522 -111.579286 -36.087664 165.099604 4.648667 -7.171043 -2.431702 -7.851881 -42.034809 0.211477 -46.222135 81.226002 -54.749359 -4.783564 -4.414525 7.494336 0.583480 -0.054809 0.203271 4.764362 -40.420160 -3.632928 24.775884 83.296075 30.453100 -1.987032 -10.013092 -0.031172 -0.033640 0.367999 -0.105247
-20.225819 52.102156 30.767292 179.786125 -40.182150 -0.779657 1.753489 14.596477 -0.638704 0.127331 1.326488 -0.041811 0.270465 2.208394 -0.032744 1.433719 13.104898 -0.159154 -2.288283 19.963778 -0.951975 -2.217580 -4.560898 -0.490978 12.494235 9.552132 12.688223 70.274307 -7.259910 -60.348979 125.624181 -26.830835 -162.124831 5.348056 -7.767590 -10.468824 -13.292751 8.181297 -15.315821 -74.230752 -7.129047 56.104054 -111.475598 -36.064045 165.047127 4.679780 -7.232614 -2.481368 -7.871016 -42.088795 0.314704 -46.554298 81.245406 -55.098136 -4.794778 -4.515839 7.498533 0.586236 -0.117553 0.215753 4.787733 -40.471398 -3.604823 25.200184 83.333658 30.913986 -1.998018 -10.081482 -0.052176 -0.029328 0.401969 -0.078960
-20.218794 52.093664 30.739636 179.807126 -40.156076 -0.785121 1.694738 14.605772 -0.680814 0.155893 1.296675 -0.025240 0.245875 2.204090 -0.048683 1.434601 13.081193 -0.164152 -2.306337 19.936926 -0.966775 -2.233205 -4.590858 -0.502585 12.494018 9.565284 12.700687 70.274908 -7.270626 -60.336865 125.514742 -26.804458 -162.061150 5.394026 -7.807914 -10.593986 -13.238608 8.185954 -15.315613 -74.223423 -7.127127 56.115322 -111.392707 -36.042766 165.000179 4.725036 -7.274433 -2.533220 -7.906109 -42.132623 0.344074 -46.979063 81.279339 -55.543740 -4.809293 -4.610502 7.508091 0.597350 -0.192763 0.226306 4.788085 -40.499451 -3.633126 25.442592 83.360056 31.176879 -2.005802 -10.123049 -0.060419 -0.021073 0.418245 -0.068988
-20.221396 52.091480 30.707647 179.885102 -40.180302 -0.770099 1.602821 14.647376 -0.758885 0.161011 1.287693 -0.022993 0.244543 2.199188 -0.049680 1.417895 13.067093 -0.177399 -2.327251 19.912373 -0.983715 -2.216473 -4.588269 -0.504039 12.492655 9.582714 12.710782 70.269186 -7.283511 -60.334249 125.488730 -26.787758 -162.046643 5.457089 -7.832290 -10.691497 -13.202195 8.194127 -15.313416 -74.190694 -7.138713 56.124291 -111.338027 -36.020481 164.965956 4.771134 -7.317827 -2.595799 -7.915487 -42.123724 0.269257 -47.409873 81.336594 -55.988266 -4.855128 -4.734807 7.505761 0.623861 -0.246949 0.252692 4.788559 -40.468690 -3.747526 25.772868 83.375646 31.535951 -2.015246 -10.155800 -0.083761 -0.005824 0.425061 -0.055666
-20.218593 52.080976 30.689146 179.884231 -40.119889 -0.739337 1.588877 14.592958 -0.795774 0.143830 1.298259 -0.031626 0.242259 2.190880 -0.051621 1.413231 13.052266 -0.184888 -2.326627 19.896544 -0.991164 -2.213124 -4.595838 -0.508181 12.515144 9.593608 12.724264 70.140610 -7.314642 -60.282196 125.556721 -26.699062 -162.081308 5.484968 -7.859316 -10.753765 -13.163549 8.199673 -15.309529 -74.143747 -7.149083 56.122423 -111.303147 -35.996654 164.943498 4.816170 -7.355732 -2.661171 -7.907834 -42.192876 0.256911 -47.651803 81.362855 -56.242940 -4.851722 -4.852987 7.511106 0.606072 -0.259315 0.259867 4.817372 -40.528965 -3.805364 25.945945 83.390247 31.718088 -2.013747 -10.180507 -0.089957 -0.005321 0.436311 -0.045931
-20.215545 52.072095 30.672266 179.891250 -40.067485 -0.719511 1.557360 14.565815 -0.834519 0.135083 1.306896 -0.032775 0.239682 2.179766 -0.053996 1.407989 13.031689 -0.194246 -2.298080 19.887789 -0.986883 -2.250471 -4.635245 -0.524935 12.538824 9.600143 12.734487 70.067706 -7.325306 -60.227685 125.461943 -26.671815 -162.037509 5.443874 -7.953472 -10.784630 -13.107639 8.202662 -15.310981 -74.112081 -7.144820 56.114404 -111.268061 -35.976675 164.921316 4.859770 -7.389009 -2.720149 -7.917951 -42.260964 0.261676 -47.908491 81.386371 -56.523587 -4.849596 -4.906515 7.525477 0.596291 -0.298485 0.259087 4.829983 -40.581523 -3.849670 26.108784 83.402792 31.884732 -2.016845 -10.204271 -0.088308 -0.002774 0.449106 -0.039448
-20.212403 52.064054 30.657920 179.886216 -40.016813 -0.698115 1.524603 14.580850 -0.861778 0.156304 1.255070 -0.033758 0.238584 2.177004 -0.054921 1.402726 13.026051 -0.199030 -2.317801 19.872371 -1.002057 -2.250614 -4.655564 -0.535211 12.501009 9.680685 12.753572 70.082105 -7.331663 -60.239396 125.422970 -26.633244 -162.020400 5.480599 -7.996686 -10.780645 -13.063204 8.214832 -15.315497 -74.102225 -7.136724 56.106240 -111.221558 -35.964423 164.890735 4.906144 -7.423645 -2.772495 -7.916195 -42.325547 0.270623 -48.135893 81.403919 -56.771836 -4.842091 -4.943693 7.541818 0.579138 -0.306410 0.256071 4.839264 -40.632309 -3.881825 26.317382 83.410013 32.093877 -2.028553 -10.228481 -0.088936 0.005150 0.458841 -0.041575
